<svg height='100px' width='100px'  fill="#000000" xmlns="http://www.w3.org/2000/svg" xmlns:xlink="http://www.w3.org/1999/xlink" version="1.1" x="0px" y="0px" viewBox="0, 0, 150, 150" style="transform: rotate(180deg)"><g><path d="M67.104,8.953 C68.208,8.953 69.104,9.849 69.104,10.953 L69.104,70.989 C69.104,98.203 59.131,117.772 36.198,138.177 L33.544,140.54 C32.779,141.221 31.624,141.215 30.867,140.525 L10.683,122.131 C9.837,121.361 9.809,120.039 10.621,119.233 L13.568,116.309 C24.676,105.577 35.048,93.225 35.465,77.095 L14.806,77.095 C13.701,77.095 12.806,76.199 12.806,75.095 L12.806,10.953 C12.806,9.849 13.701,8.953 14.806,8.953 L67.104,8.953 z" fill="#EAE9E9"></path><path d="M137.97,8.953 C139.075,8.953 139.97,9.849 139.97,10.953 L139.97,70.989 C139.97,98.203 129.997,117.772 107.064,138.177 L104.41,140.54 C103.645,141.221 102.49,141.215 101.733,140.525 L81.548,122.131 C80.702,121.361 80.674,120.039 81.486,119.233 L84.434,116.309 C95.541,105.577 105.915,93.225 106.331,77.095 L85.866,77.095 C84.761,77.095 83.866,76.199 83.866,75.095 L83.866,10.953 C83.866,9.849 84.761,8.953 85.866,8.953 L137.97,8.953 z" fill="#EAE9E9"></path></g></svg>